solid OpenSCAD_Model
  facet normal 0 0 -1
    outer loop
      vertex 5 5 0
      vertex 15 5 0
      vertex 15 0 0
    endloop
  endfacet
  facet normal 0 -0 -1
    outer loop
      vertex 5 5 0
      vertex 15 0 0
      vertex 0 0 0
    endloop
  endfacet
  facet normal 0 0 -1
    outer loop
      vertex 5 5 0
      vertex 0 15 0
      vertex 5 15 0
    endloop
  endfacet
  facet normal -0 0 -1
    outer loop
      vertex 5 5 0
      vertex 0 0 0
      vertex 0 15 0
    endloop
  endfacet
  facet normal 0 -0 1
    outer loop
      vertex 15 0 30
      vertex 15 5 30
      vertex 5 5 30
    endloop
  endfacet
  facet normal 0 0 1
    outer loop
      vertex 0 0 30
      vertex 15 0 30
      vertex 5 5 30
    endloop
  endfacet
  facet normal 0 0 1
    outer loop
      vertex 5 15 30
      vertex 0 15 30
      vertex 5 5 30
    endloop
  endfacet
  facet normal 0 0 1
    outer loop
      vertex 0 15 30
      vertex 0 0 30
      vertex 5 5 30
    endloop
  endfacet
  facet normal 0 1 0
    outer loop
      vertex 5 5 0
      vertex 15 5 30
      vertex 15 5 0
    endloop
  endfacet
  facet normal 0 1 0
    outer loop
      vertex 5 5 0
      vertex 5 5 30
      vertex 15 5 30
    endloop
  endfacet
  facet normal 1 0 0
    outer loop
      vertex 5 15 0
      vertex 5 5 30
      vertex 5 5 0
    endloop
  endfacet
  facet normal 1 0 -0
    outer loop
      vertex 5 15 0
      vertex 5 15 30
      vertex 5 5 30
    endloop
  endfacet
  facet normal 0 1 0
    outer loop
      vertex 0 15 0
      vertex 5 15 30
      vertex 5 15 0
    endloop
  endfacet
  facet normal 0 1 0
    outer loop
      vertex 0 15 0
      vertex 0 15 30
      vertex 5 15 30
    endloop
  endfacet
  facet normal -1 0 0
    outer loop
      vertex 0 0 0
      vertex 0 15 30
      vertex 0 15 0
    endloop
  endfacet
  facet normal -1 0 0
    outer loop
      vertex 0 0 0
      vertex 0 0 30
      vertex 0 15 30
    endloop
  endfacet
  facet normal 0 -1 0
    outer loop
      vertex 15 0 0
      vertex 0 0 30
      vertex 0 0 0
    endloop
  endfacet
  facet normal 0 -1 0
    outer loop
      vertex 15 0 0
      vertex 15 0 30
      vertex 0 0 30
    endloop
  endfacet
  facet normal 1 0 0
    outer loop
      vertex 15 5 0
      vertex 15 0 30
      vertex 15 0 0
    endloop
  endfacet
  facet normal 1 0 -0
    outer loop
      vertex 15 5 0
      vertex 15 5 30
      vertex 15 0 30
    endloop
  endfacet
endsolid OpenSCAD_Model
