solid OpenSCAD_Model
  facet normal 0 0 -1
    outer loop
      vertex 0 5 0
      vertex 80 20 0
      vertex 47 6 0
    endloop
  endfacet
  facet normal -0 -0 -1
    outer loop
      vertex 70 -6 0
      vertex 80 -20 0
      vertex 47 -6 0
    endloop
  endfacet
  facet normal 0 0 -1
    outer loop
      vertex 0 5 0
      vertex 47 -6 0
      vertex 0 -5 0
    endloop
  endfacet
  facet normal 0 0 -1
    outer loop
      vertex 70 6 0
      vertex 80 20 0
      vertex 80 -20 0
    endloop
  endfacet
  facet normal -0 -0 -1
    outer loop
      vertex 47 -6 0
      vertex 80 -20 0
      vertex 0 -5 0
    endloop
  endfacet
  facet normal 0 0 -1
    outer loop
      vertex 0 5 0
      vertex 47 6 0
      vertex 47 -6 0
    endloop
  endfacet
  facet normal 0 0 -1
    outer loop
      vertex 70 -6 0
      vertex 70 6 0
      vertex 80 -20 0
    endloop
  endfacet
  facet normal 0 0 -1
    outer loop
      vertex 70 6 0
      vertex 47 6 0
      vertex 80 20 0
    endloop
  endfacet
  facet normal 0 -0 1
    outer loop
      vertex 47 6 5
      vertex 80 20 5
      vertex 0 5 5
    endloop
  endfacet
  facet normal -0 0 1
    outer loop
      vertex 47 -6 5
      vertex 80 -20 5
      vertex 70 -6 5
    endloop
  endfacet
  facet normal -0 0 1
    outer loop
      vertex 0 -5 5
      vertex 47 -6 5
      vertex 0 5 5
    endloop
  endfacet
  facet normal 0 -0 1
    outer loop
      vertex 80 -20 5
      vertex 80 20 5
      vertex 70 6 5
    endloop
  endfacet
  facet normal 0 0 1
    outer loop
      vertex 0 -5 5
      vertex 80 -20 5
      vertex 47 -6 5
    endloop
  endfacet
  facet normal 0 -0 1
    outer loop
      vertex 47 -6 5
      vertex 47 6 5
      vertex 0 5 5
    endloop
  endfacet
  facet normal 0 0 1
    outer loop
      vertex 80 -20 5
      vertex 70 6 5
      vertex 70 -6 5
    endloop
  endfacet
  facet normal 0 0 1
    outer loop
      vertex 80 20 5
      vertex 47 6 5
      vertex 70 6 5
    endloop
  endfacet
  facet normal -0.184289 0.982872 0
    outer loop
      vertex 0 5 0
      vertex 80 20 5
      vertex 80 20 0
    endloop
  endfacet
  facet normal -0.184289 0.982872 0
    outer loop
      vertex 0 5 0
      vertex 0 5 5
      vertex 80 20 5
    endloop
  endfacet
  facet normal -1 0 0
    outer loop
      vertex 0 -5 0
      vertex 0 5 5
      vertex 0 5 0
    endloop
  endfacet
  facet normal -1 0 0
    outer loop
      vertex 0 -5 0
      vertex 0 -5 5
      vertex 0 5 5
    endloop
  endfacet
  facet normal -0.184289 -0.982872 0
    outer loop
      vertex 80 -20 0
      vertex 0 -5 5
      vertex 0 -5 0
    endloop
  endfacet
  facet normal -0.184289 -0.982872 0
    outer loop
      vertex 80 -20 0
      vertex 80 -20 5
      vertex 0 -5 5
    endloop
  endfacet
  facet normal 1 0 0
    outer loop
      vertex 80 20 0
      vertex 80 -20 5
      vertex 80 -20 0
    endloop
  endfacet
  facet normal 1 0 -0
    outer loop
      vertex 80 20 0
      vertex 80 20 5
      vertex 80 -20 5
    endloop
  endfacet
  facet normal 1 0 -0
    outer loop
      vertex 47 6 0
      vertex 47 6 5
      vertex 47 -6 0
    endloop
  endfacet
  facet normal 1 -0 0
    outer loop
      vertex 47 -6 5
      vertex 47 -6 0
      vertex 47 6 5
    endloop
  endfacet
  facet normal 0 -1 0
    outer loop
      vertex 70 6 0
      vertex 70 6 5
      vertex 47 6 0
    endloop
  endfacet
  facet normal 0 -1 0
    outer loop
      vertex 47 6 5
      vertex 47 6 0
      vertex 70 6 5
    endloop
  endfacet
  facet normal -1 0 0
    outer loop
      vertex 70 -6 0
      vertex 70 -6 5
      vertex 70 6 0
    endloop
  endfacet
  facet normal -1 -0 -0
    outer loop
      vertex 70 6 5
      vertex 70 6 0
      vertex 70 -6 5
    endloop
  endfacet
  facet normal 0 1 0
    outer loop
      vertex 47 -6 0
      vertex 47 -6 5
      vertex 70 -6 0
    endloop
  endfacet
  facet normal 0 1 0
    outer loop
      vertex 70 -6 5
      vertex 70 -6 0
      vertex 47 -6 5
    endloop
  endfacet
endsolid OpenSCAD_Model
